<svg xmlns="http://www.w3.org/2000/svg" width="1200" height="630" viewBox="0 0 1200 630" role="img" aria-label="PVG EV smart charging network">
  <defs>
    <linearGradient id="bg" x1="0" x2="1" y1="0" y2="1">
      <stop offset="0" stop-color="#FFFFFF"/>
      <stop offset=".62" stop-color="#F4FFFA"/>
      <stop offset="1" stop-color="#E4FAF1"/>
    </linearGradient>
    <linearGradient id="accent" x1="0" x2="1">
      <stop offset="0" stop-color="#0EA5FF"/>
      <stop offset="1" stop-color="#08A66A"/>
    </linearGradient>
    <filter id="shadow" x="-25%" y="-35%" width="150%" height="180%">
      <feDropShadow dx="0" dy="18" stdDeviation="16" flood-color="#18464C" flood-opacity=".18"/>
    </filter>
  </defs>
  <rect width="1200" height="630" fill="url(#bg)"/>
  <text x="84" y="135" fill="#067A50" font-family="Inter, Arial, sans-serif" font-size="46" font-weight="900">PVG EV</text>
  <text x="84" y="224" fill="#121619" font-family="Inter, Arial, sans-serif" font-size="70" font-weight="900">Smart EV Charging</text>
  <text x="84" y="304" fill="#121619" font-family="Inter, Arial, sans-serif" font-size="70" font-weight="900">Network</text>
  <text x="84" y="382" fill="#067A50" font-family="Inter, Arial, sans-serif" font-size="38" font-weight="900">Mobile, Fleet, Commercial and Home Charging</text>
  <text x="84" y="450" fill="#46515A" font-family="Inter, Arial, sans-serif" font-size="26" font-weight="700">Prime Ventures Global clean mobility infrastructure.</text>
  <circle cx="884" cy="318" r="190" fill="none" stroke="#D7E2E5" stroke-width="18"/>
  <circle cx="884" cy="318" r="190" fill="none" stroke="url(#accent)" stroke-width="12" stroke-dasharray="12 14"/>
  <g filter="url(#shadow)">
    <path d="M762 294h205c34 0 62 28 62 62v58H722v-78c0-23 17-42 40-42Z" fill="#F9FEFF" stroke="#9BC7D2" stroke-width="3"/>
    <path d="M785 242h88c27 0 52 16 64 41l6 12H748l37-53Z" fill="#FFFFFF" stroke="#9BC7D2" stroke-width="3"/>
    <path d="M804 258h59c22 0 41 12 51 31H770l34-31Z" fill="#142735"/>
    <rect x="879" y="315" width="112" height="68" rx="6" fill="#FFFFFF" stroke="#B5D0D7" stroke-width="2"/>
    <text x="935" y="345" text-anchor="middle" fill="#08A66A" font-family="Inter, Arial, sans-serif" font-size="18" font-weight="900">PVG EV</text>
    <text x="935" y="368" text-anchor="middle" fill="#496571" font-family="Inter, Arial, sans-serif" font-size="12" font-weight="800">MOBILE CHARGER</text>
    <circle cx="786" cy="414" r="31" fill="#17262E"/>
    <circle cx="786" cy="414" r="13" fill="#E6F7FA"/>
    <circle cx="972" cy="414" r="31" fill="#17262E"/>
    <circle cx="972" cy="414" r="13" fill="#E6F7FA"/>
  </g>
</svg>
